<svg id="vector" xmlns="http://www.w3.org/2000/svg" width="500" height="700" viewBox="0 0 500 700"><path fill="#C2CACC" d="M167.8,451.8c-50.3,0 -91,13.7 -91,30.7c0,17 40.8,30.7 91,30.7c1.2,0 2.4,0 3.6,0c-3.8,3.4 -5.9,7.1 -5.9,10.9c0,17 40.8,30.7 91,30.7c50.3,0 91,-13.7 91,-30.7c0,-17 -40.8,-30.7 -91,-30.7c-1.2,0 -2.4,0 -3.6,0c3.8,-3.4 5.9,-7.1 5.9,-10.9C258.8,465.5 218,451.8 167.8,451.8" id="path_0"/><path fill="#C2CACC" d="M354,430.5c-38.3,0 -69.3,13.7 -69.3,30.7c0,17 31,30.7 69.3,30.7s69.3,-13.7 69.3,-30.7C423.3,444.2 392.2,430.5 354,430.5" id="path_1"/><path fill="#90CAF9" d="M413.4,462.3c0,17.4 -15.3,22.2 -65.7,22.2c-36.3,0 -65.7,-8 -65.7,-22.2c7.4,-64.3 -2.6,-107.9 0,-125.3h131.5C415.8,384 409.6,428.7 413.4,462.3z" id="path_2"/><path fill="#BBDEFB" d="M413.4,337c0,8.5 -33.8,26.6 -70.1,26.6s-61.4,-18 -61.4,-26.6c0,-8.5 34.3,-11.6 70.6,-11.6S413.4,328.5 413.4,337z" id="path_3"/><path fill="#F48FB1" d="M224.2,480.6c0,18.5 -16.2,23.6 -69.8,23.6c-38.6,0 -69.8,-8.5 -69.8,-23.6c7.8,-68.3 -2.8,-114.6 0,-133h139.6C226.7,397.5 220.2,444.9 224.2,480.6z" id="path_4"/><path fill="#F8BBD0" d="M224.2,347.6c0,9.1 -35.8,28.2 -74.4,28.2s-65.2,-19.2 -65.2,-28.2c0,-9.1 36.4,-12.3 75,-12.3S224.2,338.5 224.2,347.6z" id="path_5"/><path fill="#E7E7E7" d="M337.8,518.7c0,21.6 -19,27.6 -81.7,27.6c-45.1,0 -81.7,-10 -81.7,-27.6c9.2,-79.9 -3.3,-134.1 0,-155.7h163.4C340.7,421.4 333.1,476.9 337.8,518.7z" id="path_6"/><path fill="#F5F5F5" d="M337.8,363c0,10.6 -41.9,33 -87.1,33s-76.3,-22.4 -76.3,-33s42.6,-14.4 87.8,-14.4S337.8,352.4 337.8,363z" id="path_7"/></svg>