<svg id="vector" xmlns="http://www.w3.org/2000/svg" width="500" height="700" viewBox="0 0 500 700"><path fill="#C2CACC" d="M250,385.8c-95.9,0 -173.7,42.4 -173.7,94.6c0,33 31,71 78.1,88c16.6,6 35.1,7.1 55,7.1c13,0 26.6,-0.5 40.6,-0.5c11.9,0 23.4,0.3 34.6,0.3c24.1,0 46.4,-1.2 65.8,-8.7c44.3,-17.1 73.2,-54.3 73.2,-86.2C423.7,428.1 345.9,385.8 250,385.8" id="path_0"/><path fill="#DB8303" d="M410.4,453.4l-0.2,-19.2l-29.8,8.4l0.7,69.6l23.5,-6.6c1.4,-0.4 2.6,-1.3 3.4,-2.4c0.9,-1.1 1.4,-2.5 1.4,-3.9L410.4,453.4z" id="path_1"/><path fill="#EA8B03" d="M379.2,424.2l-31.8,9l0.2,18.7l0.8,-0.2l0.9,88.7l0,0l26.3,-7.4c1.5,-0.4 2.8,-1.4 3.7,-2.6c0.9,-1.2 1.5,-2.6 1.5,-4.1l-0.3,-13.5l1,-0.2l-2,-69.9L379.2,424.2z" id="path_2"/><path fill="#E5B54A" d="M88.4,434.2l0.6,61.7c-0.1,1.7 1,3.1 2.6,3.7l28.9,9.2l-0.8,-83.3L88.4,434.2z" id="path_3"/><path fill="#EFBF48" d="M152.4,488.1l-0.4,-37.5l-31.6,8.9l0.5,49.3l0.3,15.7c-0.1,1.6 1,3.1 2.5,3.6l28.7,9.1v0.1V488.1L152.4,488.1z" id="path_4"/><path fill="#FBCD46" d="M188.4,496.8v-0.4l-0.2,-18.3l-35.8,10l0,0v49.3v0.4l0.3,15.4c-0.1,1.6 1,3.1 2.5,3.6l30.6,9.7c0.9,0.3 1.8,0.3 2.6,0v0.5l1,0L188.4,496.8z" id="path_5"/><path fill="#FFA100" d="M218.4,488l0,-0.1l-30,8.5l0.7,70.3l0,0l30.3,-8.6l0,-70.1z" id="path_6"/><path fill="#FBCD46" d="M251.4,514.4l-0.4,-35.3l-32.6,9.2l0,0l0.7,70.3l29.7,9.4c0.9,0.3 1.8,0.3 2.7,0v0l1,0L251.4,514.4z" id="path_7"/><path fill="#FFA100" d="M250.4,498.2l1,16.1l0.5,53.7l0.1,0l29.4,-8.3l-0.7,-70.1z" id="path_8"/><path fill="#FBCD46" d="M313.5,480.3l-33.1,9.3l0.7,69.9l29.7,9.4c0.9,0.3 1.8,0.3 2.7,0v0l1,0L313.5,480.3z" id="path_9"/><path fill="#FFA100" d="M348.5,451.7l-0.8,0.2l-35.3,9.9l1,18.8l0.9,88.4l0.1,0l30.4,-8.6c1.4,-0.4 2.7,-1.3 3.6,-2.5c0.9,-1.1 1.4,-2.6 1.4,-4l-0.3,-13.2l0,0L348.5,451.7z" id="path_10"/><path fill="#FF9800" d="M185.6,365.8l-30.9,8.7l0.4,18.7l31.3,9.9z" id="path_11"/><path fill="#FFAB00" d="M185.6,365.8l0.8,37.3l31,-8.7l-0.4,-18.7z" id="path_12"/><path fill="#FF9800" d="M186.2,422l-30.9,8.7l0.4,18.7l31.3,10z" id="path_13"/><path fill="#FFAB00" d="M186.2,422l0.8,37.4l30.9,-8.7l-0.4,-18.7z" id="path_14"/><path fill="#FF9800" d="M186.7,478.2l-30.9,8.8l0.4,18.7l31.3,9.9z" id="path_15"/><path fill="#FFAB00" d="M186.7,478.2l0.8,37.4l31,-8.7l-0.4,-18.7z" id="path_16"/><path fill="#FF9800" d="M248.2,366.9l-30.9,8.7l0.4,18.7l31.3,10z" id="path_17"/><path fill="#FFAB00" d="M248.2,366.9l0.8,37.4l31,-8.7l-0.4,-18.7z" id="path_18"/><path fill="#FF9800" d="M248.8,423.2l-31,8.7l0.4,18.7l31.4,9.9z" id="path_19"/><path fill="#FFAB00" d="M248.8,423.2l0.8,37.3l30.9,-8.7l-0.4,-18.7z" id="path_20"/><path fill="#FF9800" d="M249.3,479.4l-30.9,8.7l0.4,18.7l31.3,10z" id="path_21"/><path fill="#FFAB00" d="M249.3,479.4l0.8,37.4l31,-8.7l-0.4,-18.7z" id="path_22"/><path fill="#FF9800" d="M310.5,368.5l-30.9,8.7l0.4,18.7l31.4,9.9z" id="path_23"/><path fill="#FFAB00" d="M310.5,368.5l0.9,37.3l30.9,-8.7l-0.4,-18.7z" id="path_24"/><path fill="#FF9800" d="M311.1,424.7l-31,8.7l0.5,18.7l31.3,10z" id="path_25"/><path fill="#FFAB00" d="M311.1,424.7l0.8,37.4l30.9,-8.7l-0.4,-18.7z" id="path_26"/><path fill="#FF9800" d="M311.6,481l-30.9,8.7l0.4,18.7l31.3,9.9z" id="path_27"/><path fill="#FFAB00" d="M311.6,481l0.8,37.3l31,-8.7l-0.4,-18.7z" id="path_28"/><path fill="#FF9800" d="M154.7,393.6l-31,8.7l0.4,18.7l31.4,10z" id="path_29"/><path fill="#FFAB00" d="M154.7,393.6l0.8,37.4l30.9,-8.7l-0.4,-18.7z" id="path_30"/><path fill="#FF9800" d="M155.2,449.9l-30.9,8.7l0.4,18.7l31.3,9.9z" id="path_31"/><path fill="#FFAB00" d="M155.2,449.9l0.8,37.3l31,-8.7l-0.4,-18.7z" id="path_32"/><path fill="#FF9800" d="M217.2,394.5l-31,8.7l0.4,18.7l31.4,9.9z" id="path_33"/><path fill="#FFAB00" d="M217.2,394.5l0.8,37.3l30.9,-8.7l-0.4,-18.7z" id="path_34"/><path fill="#FF9800" d="M217.7,450.7l-30.9,8.7l0.4,18.7l31.3,10z" id="path_35"/><path fill="#FFAB00" d="M217.7,450.7l0.8,37.4l31,-8.7l-0.5,-18.7z" id="path_36"/><path fill="#FF9800" d="M279.6,396l-31,8.7l0.4,18.7l31.4,10z" id="path_37"/><path fill="#FFAB00" d="M279.6,396l0.8,37.4l30.9,-8.7l-0.4,-18.7z" id="path_38"/><path fill="#FF9800" d="M280.1,452.2l-30.9,8.8l0.4,18.7l31.3,9.9z" id="path_39"/><path fill="#FFAB00" d="M280.1,452.2l0.8,37.4l31,-8.7l-0.4,-18.7z" id="path_40"/><path fill="#FF9800" d="M342.1,397.2l-31,8.7l0.4,18.7l31.4,9.9z" id="path_41"/><path fill="#FFAB00" d="M342.1,397.2l0.8,37.3l30.9,-8.7l-0.4,-18.7z" id="path_42"/><path fill="#FF9800" d="M342.6,453.4l-30.9,8.7l0.4,18.7l31.3,10z" id="path_43"/><path fill="#FFAB00" d="M342.6,453.4l0.8,37.4l31,-8.7l-0.4,-18.7z" id="path_44"/><path fill="#FF9800" d="M373.8,425.5l-30.9,8.7l0.4,18.7l31.3,10z" id="path_45"/><path fill="#FFAB00" d="M373.8,425.5l0.8,37.4l30.9,-8.7l-0.4,-18.7z" id="path_46"/><path fill="#FF9800" d="M123.7,420.8l-30.9,8.7l0.4,18.7l31.3,10z" id="path_47"/><path fill="#FFAB00" d="M123.7,420.8l0.8,37.4l30.9,-8.7l-0.4,-18.7z" id="path_48"/><path fill="#FBC02D" d="M249.1,423.1l-1.2,-4.3l-30.9,8.7c-2,0.6 -3.3,2.4 -3.3,4.4l0.4,18.7c0,1.9 1.3,3.6 3.1,4.2l31.3,10c0.8,0.3 1.7,0.3 2.6,0l30.9,-8.7c2,-0.6 3.3,-2.4 3.3,-4.4l-0.4,-18.7c0,-1.9 -1.3,-3.6 -3.1,-4.2l-31.3,-10c-0.8,-0.3 -1.7,-0.3 -2.6,0L249.1,423.1l-1.4,4.3l28.3,9l0.3,12l-26.3,7.4l-27,-8.6l-0.3,-12l27.6,-7.8L249.1,423.1l-1.4,4.3L249.1,423.1z" id="path_49"/><path fill="#FBC02D" d="M217.4,394.4l-1.2,-4.3l-30.9,8.7c-2,0.6 -3.3,2.4 -3.3,4.4l0.4,18.7c0,1.9 1.3,3.6 3.1,4.2l31.3,10c0.8,0.3 1.7,0.3 2.6,0l30.9,-8.7c2,-0.6 3.3,-2.4 3.3,-4.4l-0.4,-18.7c0,-1.9 -1.3,-3.6 -3.1,-4.2l-31.3,-10c-0.8,-0.3 -1.7,-0.3 -2.6,0L217.4,394.4l-1.4,4.3l28.3,9l0.3,12l-26.3,7.4l-27,-8.6l-0.3,-12l27.6,-7.8L217.4,394.4l-1.4,4.3L217.4,394.4z" id="path_50"/><path fill="#FBC02D" d="M185.6,365.8l-1.2,-4.3l-30.9,8.7c-2,0.6 -3.3,2.4 -3.3,4.4l0.4,18.7c0,1.9 1.3,3.6 3.1,4.2l31.3,10c0.8,0.3 1.7,0.3 2.6,0l30.9,-8.7c2,-0.6 3.3,-2.4 3.3,-4.4l-0.4,-18.7c0,-1.9 -1.3,-3.6 -3.1,-4.2l-31.3,-10c-0.8,-0.3 -1.7,-0.3 -2.6,0L185.6,365.8l-1.4,4.3l28.3,9l0.3,12l-26.3,7.4l-27,-8.6l-0.3,-12l27.6,-7.8L185.6,365.8l-1.4,4.3L185.6,365.8z" id="path_51"/><path fill="#FBC02D" d="M312.6,480.4l-1.2,-4.3l-30.9,8.7c-2,0.6 -3.3,2.4 -3.3,4.4l0.4,18.7c0,1.9 1.3,3.6 3.1,4.2l31.3,10c0.8,0.3 1.7,0.3 2.6,0l30.9,-8.7c2,-0.6 3.3,-2.4 3.3,-4.4l-0.4,-18.7c0,-1.9 -1.3,-3.6 -3.1,-4.2l-31.3,-10c-0.8,-0.3 -1.7,-0.3 -2.6,0L312.6,480.4l-1.4,4.3l28.3,9l0.3,12l-26.3,7.4l-27,-8.6l-0.3,-12l27.6,-7.8L312.6,480.4l-1.4,4.3L312.6,480.4z" id="path_52"/><path fill="#FBC02D" d="M280.9,451.7l-1.2,-4.3l-30.9,8.7c-2,0.6 -3.3,2.4 -3.3,4.4l0.4,18.7c0,1.9 1.3,3.6 3.1,4.2l31.3,10c0.8,0.3 1.7,0.3 2.6,0l30.9,-8.7c2,-0.6 3.3,-2.4 3.3,-4.4l-0.4,-18.7c0,-1.9 -1.3,-3.6 -3.1,-4.2l-31.3,-10c-0.8,-0.3 -1.7,-0.3 -2.6,0L280.9,451.7l-1.4,4.3l28.3,9l0.3,12l-26.3,7.4l-27,-8.6l-0.3,-12l27.6,-7.8L280.9,451.7l-1.4,4.3L280.9,451.7z" id="path_53"/><path fill="#FBC02D" d="M219,450.4l-1.2,-4.3l-30.9,8.7c-2,0.6 -3.3,2.4 -3.3,4.4l0.4,18.7c0,1.9 1.3,3.6 3.1,4.2l31.3,10c0.8,0.3 1.7,0.3 2.6,0l30.9,-8.7c2,-0.6 3.3,-2.4 3.3,-4.4l-0.4,-18.7c0,-1.9 -1.3,-3.6 -3.1,-4.2l-31.3,-10c-0.8,-0.3 -1.7,-0.3 -2.6,0L219,450.4l-1.4,4.3l28.3,9l0.3,12l-26.3,7.4l-27,-8.6l-0.3,-12l27.6,-7.8L219,450.4l-1.4,4.3L219,450.4z" id="path_54"/><path fill="#FBC02D" d="M187.2,421.7l-1.2,-4.3l-30.9,8.7c-2,0.6 -3.3,2.4 -3.3,4.4l0.4,18.7c0,1.9 1.3,3.6 3.1,4.2l31.3,10c0.8,0.3 1.7,0.3 2.6,0l30.9,-8.7c2,-0.6 3.3,-2.4 3.3,-4.4l-0.4,-18.7c0,-1.9 -1.3,-3.6 -3.1,-4.2l-31.3,-10c-0.8,-0.3 -1.7,-0.3 -2.6,0L187.2,421.7l-1.4,4.3l28.3,9l0.3,12l-26.3,7.4l-27,-8.6l-0.3,-12l27.6,-7.8L187.2,421.7l-1.4,4.3L187.2,421.7z" id="path_55"/><path fill="#FBC02D" d="M155.5,393.1l-1.2,-4.3l-30.9,8.7c-2,0.6 -3.3,2.4 -3.3,4.4l0.4,18.7c0,1.9 1.3,3.6 3.1,4.2l31.3,10c0.8,0.3 1.7,0.3 2.6,0l30.9,-8.7c2,-0.6 3.3,-2.4 3.3,-4.4l-0.4,-18.7c0,-1.9 -1.3,-3.6 -3.1,-4.2l-31.3,-10c-0.8,-0.3 -1.7,-0.3 -2.6,0L155.5,393.1l-1.4,4.3l28.3,9l0.3,12l-26.3,7.4l-27,-8.6l-0.3,-12l27.6,-7.8L155.5,393.1l-1.4,4.3L155.5,393.1z" id="path_56"/><path fill="#FBC02D" d="M250.7,479l-1.2,-4.3l-30.9,8.7c-2,0.6 -3.3,2.4 -3.3,4.4l0.4,18.7c0,1.9 1.3,3.6 3.1,4.2l31.3,10c0.8,0.3 1.7,0.3 2.6,0l30.9,-8.7c2,-0.6 3.3,-2.4 3.3,-4.4l-0.4,-18.7c0,-1.9 -1.3,-3.6 -3.1,-4.2l-31.3,-10c-0.8,-0.3 -1.7,-0.3 -2.6,0L250.7,479l-1.4,4.3l28.3,9l0.3,12l-26.3,7.4l-27,-8.6l-0.3,-12l27.6,-7.8L250.7,479l-1.4,4.3L250.7,479z" id="path_57"/><path fill="#FBC02D" d="M156.4,449.2l-1.2,-4.3l-30.9,8.7c-2,0.6 -3.3,2.4 -3.3,4.4l0.4,18.7c0,1.9 1.3,3.6 3.1,4.2l31.3,10c0.8,0.3 1.7,0.3 2.6,0l30.9,-8.7c2,-0.6 3.3,-2.4 3.3,-4.4l-0.4,-18.7c0,-1.9 -1.3,-3.6 -3.1,-4.2l-31.3,-10c-0.8,-0.3 -1.7,-0.3 -2.6,0L156.4,449.2l-1.4,4.3l28.3,9l0.3,12l-26.3,7.4l-27,-8.6l-0.3,-12l27.6,-7.8L156.4,449.2l-1.4,4.3L156.4,449.2z" id="path_58"/><path fill="#FBC02D" d="M124.6,420.6l-1.2,-4.3L92.5,425c-2,0.6 -3.3,2.4 -3.3,4.4l0.4,18.7c0,1.9 1.3,3.6 3.1,4.2l31.3,10c0.8,0.3 1.7,0.3 2.6,0l30.9,-8.7c2,-0.6 3.3,-2.4 3.3,-4.4l-0.4,-18.7c0,-1.9 -1.3,-3.6 -3.1,-4.2l-31.3,-10c-0.8,-0.3 -1.7,-0.3 -2.6,0L124.6,420.6l-1.4,4.3l28.3,9l0.3,12l-26.3,7.4l-27,-8.6l-0.3,-12l27.6,-7.8L124.6,420.6l-1.4,4.3L124.6,420.6z" id="path_59"/><path fill="#FBC02D" d="M188.1,477.9l-1.2,-4.3l-30.9,8.7c-2,0.6 -3.3,2.4 -3.3,4.4l0.4,18.7c0,1.9 1.3,3.6 3.1,4.2l31.3,10c0.8,0.3 1.7,0.3 2.6,0l30.9,-8.7c2,-0.6 3.3,-2.4 3.3,-4.4l-0.4,-18.7c0,-1.9 -1.3,-3.6 -3.1,-4.2l-31.3,-10c-0.8,-0.3 -1.7,-0.3 -2.6,0L188.1,477.9l-1.4,4.3l28.3,9l0.3,12l-26.3,7.4l-27,-8.6l-0.3,-12l27.6,-7.8L188.1,477.9l-1.4,4.3L188.1,477.9z" id="path_60"/><path fill="#FBC02D" d="M311.7,424.2l-1.2,-4.3l-30.9,8.7c-2,0.6 -3.3,2.4 -3.3,4.4l0.4,18.7c0,1.9 1.3,3.6 3.1,4.2l31.3,10c0.8,0.3 1.7,0.3 2.6,0l30.9,-8.7c2,-0.6 3.3,-2.4 3.3,-4.4l-0.4,-18.7c0,-1.9 -1.3,-3.6 -3.1,-4.2l-31.3,-10c-0.8,-0.3 -1.7,-0.3 -2.6,0L311.7,424.2l-1.4,4.3l28.3,9l0.3,12l-26.3,7.4l-27,-8.6l-0.3,-12l27.6,-7.8L311.7,424.2l-1.4,4.3L311.7,424.2z" id="path_61"/><path fill="#FBC02D" d="M280,395.6l-1.2,-4.3l-30.9,8.7c-2,0.6 -3.3,2.4 -3.3,4.4l0.4,18.7c0,1.9 1.3,3.6 3.1,4.2l31.3,10c0.8,0.3 1.7,0.3 2.6,0l30.9,-8.7c2,-0.6 3.3,-2.4 3.3,-4.4l-0.4,-18.7c0,-1.9 -1.3,-3.6 -3.1,-4.2l-31.3,-10c-0.8,-0.3 -1.7,-0.3 -2.6,0L280,395.6l-1.4,4.3l28.3,9l0.3,12l-26.3,7.4l-27,-8.6l-0.3,-12l27.6,-7.8L280,395.6l-1.4,4.3L280,395.6z" id="path_62"/><path fill="#FBC02D" d="M248.2,366.9l-1.2,-4.3l-30.9,8.7c-2,0.6 -3.3,2.4 -3.3,4.4l0.4,18.7c0,1.9 1.3,3.6 3.1,4.2l31.3,10c0.8,0.3 1.7,0.3 2.6,0l30.9,-8.7c2,-0.6 3.3,-2.4 3.3,-4.4l-0.4,-18.7c0,-1.9 -1.3,-3.6 -3.1,-4.2l-31.3,-10c-0.8,-0.3 -1.7,-0.3 -2.6,0L248.2,366.9l-1.4,4.3l28.3,9l0.3,12l-26.3,7.4l-27,-8.6l-0.3,-12l27.6,-7.8L248.2,366.9l-1.4,4.3L248.2,366.9z" id="path_63"/><path fill="#FBC02D" d="M343.5,452.9l-1.2,-4.3l-30.9,8.7c-2,0.6 -3.3,2.4 -3.3,4.4l0.4,18.7c0,1.9 1.3,3.6 3.1,4.2l31.3,10c0.8,0.3 1.7,0.3 2.6,0l30.9,-8.7c2,-0.6 3.3,-2.4 3.3,-4.4l-0.4,-18.7c0,-1.9 -1.3,-3.6 -3.1,-4.2l-31.3,-10c-0.8,-0.3 -1.7,-0.3 -2.6,0L343.5,452.9l-1.4,4.3l28.3,9l0.3,12l-26.3,7.4l-27,-8.6l-0.3,-12l27.6,-7.8L343.5,452.9l-1.4,4.3L343.5,452.9z" id="path_64"/><path fill="#FBC02D" d="M342.3,396.8l-1.2,-4.3l-30.9,8.7c-2,0.6 -3.3,2.4 -3.3,4.4l0.4,18.7c0,1.9 1.3,3.6 3.1,4.2l31.3,10c0.8,0.3 1.7,0.3 2.6,0l30.9,-8.7c2,-0.6 3.3,-2.4 3.3,-4.4l-0.4,-18.7c0,-1.9 -1.3,-3.6 -3.1,-4.2l-31.3,-10c-0.8,-0.3 -1.7,-0.3 -2.6,0L342.3,396.8l-1.4,4.3l28.3,9l0.3,12l-26.3,7.4l-27,-8.6l-0.3,-12l27.6,-7.8L342.3,396.8l-1.4,4.3L342.3,396.8z" id="path_65"/><path fill="#FBC02D" d="M310.5,368.1l-1.2,-4.3l-30.9,8.7c-2,0.6 -3.3,2.4 -3.3,4.4l0.4,18.7c0,1.9 1.3,3.6 3.1,4.2l31.3,10c0.8,0.3 1.7,0.3 2.6,0l30.9,-8.7c2,-0.6 3.3,-2.4 3.3,-4.4l-0.4,-18.7c0,-1.9 -1.3,-3.6 -3.1,-4.2l-31.3,-10c-0.8,-0.3 -1.7,-0.3 -2.6,0L310.5,368.1l-1.4,4.3l28.3,9l0.3,12l-26.3,7.4l-27,-8.6l-0.3,-12l27.6,-7.8L310.5,368.1l-1.4,4.3L310.5,368.1z" id="path_66"/><path fill="#FBC02D" d="M374,425.4l-1.2,-4.3l-30.9,8.7c-2,0.6 -3.3,2.4 -3.3,4.4l0.4,18.7c0,1.9 1.3,3.6 3.1,4.2l31.3,10c0.8,0.3 1.7,0.3 2.6,0l30.9,-8.7c2,-0.6 3.3,-2.4 3.3,-4.4l-0.4,-18.7c0,-1.9 -1.3,-3.6 -3.1,-4.2l-31.3,-10c-0.8,-0.3 -1.7,-0.3 -2.6,0L374,425.4l-1.4,4.3l28.3,9l0.3,12l-26.3,7.4l-27,-8.6l-0.3,-12l27.6,-7.8L374,425.4l-1.4,4.3L374,425.4z" id="path_67"/></svg>