<svg
    xmlns="http://www.w3.org/2000/svg"
    viewBox="0 0 473 411"
    id="vector">
    <path
        id="path"
        d="M 353.1 221.9 L 389.8 154.9 C 391.8 151.4 390.5 146.9 386.9 145 C 383.3 143.1 378.9 144.4 377 147.9 L 339.9 215.6 C 308.7 201.7 273.8 193.9 236.8 194 C 200 194 165.1 201.7 134 215.5 L 96.9 147.9 C 95 144.3 90.5 143 87 145 C 83.4 146.9 82.1 151.4 84.1 154.9 L 120.8 221.9 C 48.7 259.1 0 330 0 411.3 L 473.8 411.3 C 473.8 330 425.1 259.2 353.1 221.9 M 129.1 325.5 C 118.2 325.5 109.3 316.6 109.3 305.7 C 109.3 294.8 118.2 285.8 129.1 285.8 C 140.1 285.8 149 294.8 149 305.7 C 149 316.6 140.1 325.5 129.1 325.5 M 344.8 325.5 C 333.8 325.5 324.9 316.6 324.9 305.6 C 324.9 294.7 333.8 285.7 344.8 285.7 C 355.7 285.7 364.6 294.7 364.6 305.6 C 364.7 316.6 355.8 325.5 344.8 325.5"
        fill="#6ab343"/>
    <path
        id="path_1"
        d="M 226.8 93.1 C 226.8 86.5 228 81.1 230.4 76.7 C 232.8 72.3 237.3 67.2 243.9 61.2 C 249 56.5 252.7 52.4 255 49.1 C 257.3 45.8 258.4 41.7 258.4 37 C 258.4 30.7 256.4 25.6 252.3 21.7 C 248.2 17.8 242.6 15.9 235.4 15.9 C 228.8 15.9 223.7 17.8 219.9 21.5 C 216.1 25.2 213.2 29.9 211.2 35.4 L 195.7 28.9 C 198.3 21.3 203 14.6 209.7 8.7 C 216.4 2.9 225 0 235.5 0 C 243.4 0 250.4 1.6 256.5 4.8 C 262.6 8 267.3 12.4 270.7 18.1 C 274 23.7 275.7 30 275.7 37 C 275.7 42 274.6 46.6 272.6 50.9 C 270.5 55.2 268.2 58.6 265.8 61.3 C 263.4 64 260.3 67.1 256.5 70.6 C 252.2 74.5 249 78.3 247 81.8 C 245 85.3 243.9 89.5 243.9 94.2 L 243.9 102.5 L 227 102.5 L 227 93.1 Z M 226.6 140.4 C 224.2 138 223 135 223 131.4 C 223 128 224.2 125.1 226.6 122.6 C 229 120.2 231.9 119 235.4 119 C 238.9 119 241.9 120.2 244.4 122.6 C 246.8 125 248 127.9 248 131.4 C 248 134.9 246.8 137.9 244.4 140.4 C 242 142.8 239 144 235.4 144 C 231.9 144.1 229 142.9 226.6 140.4 Z"
        fill="#424242"/>
    <path
        id="path_2"
        d="M 126.3 82.2 C 124.2 77.8 123.3 73.7 123.6 70 C 123.9 66.3 125.3 61.4 127.8 55.4 C 129.8 50.6 131 46.7 131.5 43.8 C 132 40.8 131.5 37.7 130 34.6 C 128 30.4 125.1 27.6 121.1 26.2 C 117.1 24.9 112.7 25.3 107.9 27.6 C 103.5 29.7 100.6 32.5 99.2 36.3 C 97.8 40 97.3 44 97.7 48.4 L 85.2 48.9 C 84.6 42.9 85.6 37 88.3 30.9 C 91 24.9 95.9 20.2 102.9 16.9 C 108.2 14.4 113.4 13.3 118.5 13.6 C 123.6 13.9 128.2 15.4 132.2 18.1 C 136.2 20.9 139.3 24.6 141.5 29.3 C 143.1 32.7 143.8 36.1 143.7 39.6 C 143.6 43.1 143.2 46.2 142.4 48.8 C 141.6 51.4 140.5 54.4 139 58 C 137.3 62 136.3 65.5 136.1 68.6 C 135.8 71.6 136.4 74.7 137.9 77.9 L 140.5 83.5 L 129.1 88.8 L 126.3 82.2 Z M 140.9 114.2 C 138.5 113.3 136.8 111.7 135.6 109.3 C 134.5 107 134.4 104.7 135.3 102.3 C 136.2 99.9 137.8 98.2 140.1 97.1 C 142.5 96 144.9 95.9 147.3 96.7 C 149.7 97.6 151.4 99.2 152.5 101.5 C 153.6 103.9 153.7 106.3 152.9 108.7 C 152 111.1 150.4 112.8 148 114 C 145.6 114.9 143.3 115 140.9 114.2 Z"
        fill="#424242"/>
    <path
        id="path_3"
        d="M 320.7 127.6 C 320 125.9 320 124.2 320.7 122.5 C 321.4 120.8 322.6 119.7 324.2 119 C 325.9 118.3 327.5 118.3 329.2 119 C 330.9 119.7 332.1 120.9 332.8 122.6 C 333.5 124.3 333.5 125.9 332.8 127.6 C 332.1 129.3 330.9 130.5 329.2 131.2 C 327.5 131.9 325.8 131.9 324.1 131.2 C 322.5 130.5 321.3 129.3 320.7 127.6 Z M 330.2 104.7 C 331.5 101.5 333.2 99.1 335.2 97.5 C 337.3 95.9 340.5 94.2 344.8 92.7 C 348.2 91.4 350.8 90.2 352.6 89 C 354.4 87.8 355.7 86.1 356.7 83.8 C 358 80.7 358 77.9 356.8 75.2 C 355.6 72.5 353.2 70.4 349.7 69 C 346.5 67.7 343.6 67.6 341 68.6 C 338.4 69.7 336.1 71.3 334 73.6 L 327.8 67.3 C 330.6 64.1 334.2 61.8 338.6 60.3 C 343 58.8 347.8 59.1 352.9 61.2 C 356.7 62.8 359.8 64.9 362.1 67.7 C 364.4 70.5 365.8 73.6 366.3 77 C 366.8 80.4 366.4 83.8 365 87.2 C 364 89.6 362.6 91.7 360.7 93.3 C 358.8 95 357 96.2 355.3 97 C 353.6 97.8 351.5 98.7 348.9 99.7 C 346 100.7 343.7 101.9 342 103.2 C 340.3 104.5 339 106.3 338 108.6 L 336.4 112.6 L 328.2 109.2 L 330.2 104.7 Z"
        fill="#424242"/>
</svg>
