<svg
    xmlns="http://www.w3.org/2000/svg"
    viewBox="0 0 507 535"
    id="vector">
    <path
        id="path"
        d="M 255.6 256.5 C 245.7 256.5 237.2 260 230.3 266.8 C 223.4 273.7 220 282.1 220 292.1 C 220 302.1 223.4 310.5 230.3 317.6 C 237.2 324.6 245.6 328.2 255.6 328.2 C 265.5 328.2 274 324.7 281.1 317.6 C 288.1 310.6 291.7 302.1 291.7 292.1 C 291.7 282.1 288.2 273.7 281.1 266.8 C 274.1 260 265.6 256.5 255.6 256.5 Z"
        fill="#6ab343"/>
    <path
        id="path_1"
        d="M 332.8 63.8 C 326.2 53.4 317.4 45 306.4 38.4 L 320.5 12.7 C 321.6 10.7 321.9 8.4 321.2 6.2 C 320.6 4 319.1 2.1 317.1 1 L 317 1 C 312.8 -1.2 307.6 0.3 305.4 4.5 L 290.8 31.1 C 279.7 27.1 267.6 25.1 254.4 25.1 C 241.6 25.1 229.9 27.1 219.5 31 L 205 4.5 C 203.9 2.5 202.1 1 199.9 0.4 C 197.7 -0.2 195.4 0 193.4 1.1 C 191.4 2.2 189.9 4 189.2 6.3 C 188.6 8.5 188.8 10.8 189.9 12.8 L 204.2 38.9 C 201.7 40.6 199.2 42.4 196.9 44.4 C 181.7 57.2 171.5 72.5 166.3 90.1 L 213.9 110 C 216.7 100.3 221.6 92.3 228.8 85.8 C 235.9 79.3 245 76 256 76 C 266.5 76 274.9 79 281.3 84.9 C 287.6 90.8 290.8 98.1 290.8 106.6 C 290.8 113.8 288.9 120.1 285.2 125.6 C 281.5 131.1 275.5 137.6 267.2 145.1 C 252.8 157.5 242.9 168.6 237.4 178.2 C 231.9 187.9 229.1 199.3 229.1 212.6 L 229.1 226.3 L 283.3 226.3 L 283.3 219.7 C 283.3 210 285 202 288.5 195.7 C 291.9 189.4 298.4 181.8 307.7 172.9 C 319.8 161.3 328.9 150.5 335 140.4 C 341.1 130.3 344.1 118.1 344.1 103.8 C 344.2 89.2 340.4 75.8 332.8 63.8 Z"
        fill="#6ab343"/>
    <path
        id="path_2"
        d="M 23.1 366.2 L 31.3 366.2 L 54.4 427.1 L 46.4 427.1 L 40.4 410.3 L 14.1 410.3 L 8 427.2 L 0 427.2 L 23.1 366.2 Z M 37.9 403.6 L 29.8 381.6 L 27.4 375 L 27.1 375 L 24.6 381.6 L 16.6 403.6 L 37.9 403.6 Z"
        fill="#6ab343"/>
    <path
        id="path_3"
        d="M 60.9 385 L 67.8 385 L 67.8 391.3 L 68.1 391.3 C 69.3 389.1 71.2 387.3 73.7 385.9 C 76.3 384.4 79 383.7 81.9 383.7 C 87.1 383.7 91 385.2 93.7 388.2 C 96.4 391.2 97.7 395.3 97.7 400.5 L 97.7 427.2 L 90.6 427.2 L 90.6 401.6 C 90.6 394 87.1 390.2 80 390.2 C 77.7 390.2 75.7 390.9 73.9 392.2 C 72.1 393.5 70.7 395.2 69.7 397.3 C 68.7 399.4 68.2 401.6 68.2 403.9 L 68.2 427.2 L 61 427.2 L 61 385 Z"
        fill="#6ab343"/>
    <path
        id="path_4"
        d="M 115.7 425.6 C 112.6 423.7 110.2 421 108.4 417.6 C 106.6 414.2 105.7 410.3 105.7 406.1 C 105.7 401.8 106.6 398 108.4 394.6 C 110.2 391.2 112.7 388.5 115.7 386.6 C 118.8 384.7 122.1 383.7 125.7 383.7 C 129 383.7 131.9 384.4 134.5 385.9 C 137.1 387.3 139.1 389.1 140.4 391.3 L 140.7 391.3 L 140.4 385.5 L 140.4 366.4 L 147.5 366.4 L 147.5 427.3 L 140.7 427.3 L 140.7 421 L 140.4 421 C 139.1 423.2 137.1 425 134.5 426.5 C 131.9 427.9 128.9 428.7 125.7 428.7 C 122.1 428.5 118.8 427.6 115.7 425.6 Z M 133.8 420.1 C 135.9 418.8 137.6 417 138.9 414.5 C 140.2 412.1 140.8 409.3 140.8 406.1 C 140.8 402.9 140.2 400 138.9 397.6 C 137.6 395.2 135.9 393.3 133.8 392.1 C 131.7 390.8 129.4 390.2 126.9 390.2 C 124.4 390.2 122.1 390.9 120 392.2 C 117.9 393.5 116.2 395.4 114.9 397.8 C 113.6 400.2 113 403 113 406.2 C 113 409.4 113.6 412.2 114.9 414.6 C 116.2 417 117.9 418.9 120 420.2 C 122.1 421.5 124.4 422.2 126.9 422.2 C 129.4 422 131.7 421.3 133.8 420.1 Z"
        fill="#6ab343"/>
    <path
        id="path_5"
        d="M 158.3 385 L 165.2 385 L 165.2 391.9 L 165.5 391.9 C 166.3 389.6 167.9 387.6 170.4 386 C 172.9 384.4 175.3 383.6 177.8 383.6 C 179.6 383.6 181.2 383.9 182.7 384.5 L 182.7 392.2 C 181.2 391.3 179.2 390.9 176.7 390.9 C 174.7 390.9 172.9 391.5 171.1 392.6 C 169.4 393.8 168 395.3 167 397.2 C 166 399.1 165.5 401.2 165.5 403.5 L 165.5 427 L 158.3 427 L 158.3 385 Z"
        fill="#6ab343"/>
    <path
        id="path_6"
        d="M 194.9 425.6 C 191.6 423.6 189 420.9 187.2 417.5 C 185.4 414.1 184.4 410.3 184.4 406.1 C 184.4 401.9 185.3 398.1 187.2 394.7 C 189 391.3 191.6 388.6 194.9 386.6 C 198.2 384.6 201.9 383.7 206 383.7 C 210.1 383.7 213.9 384.7 217.2 386.6 C 220.5 388.6 223.1 391.3 224.9 394.7 C 226.7 398.1 227.7 401.9 227.7 406.1 C 227.7 410.3 226.8 414.1 224.9 417.5 C 223.1 420.9 220.5 423.6 217.2 425.6 C 213.9 427.6 210.2 428.5 206 428.5 C 201.9 428.5 198.2 427.5 194.9 425.6 Z M 213.2 420 C 215.4 418.7 217.2 416.8 218.5 414.4 C 219.8 412 220.5 409.2 220.5 406 C 220.5 402.8 219.8 400 218.5 397.6 C 217.2 395.2 215.4 393.3 213.2 392 C 211 390.7 208.6 390 206.1 390 C 203.6 390 201.2 390.7 199 392 C 196.8 393.3 195 395.2 193.7 397.6 C 192.4 400 191.7 402.8 191.7 406 C 191.7 409.2 192.4 412 193.7 414.4 C 195 416.8 196.8 418.7 199 420 C 201.2 421.3 203.6 422 206.1 422 C 208.6 422 211 421.3 213.2 420 Z"
        fill="#6ab343"/>
    <path
        id="path_7"
        d="M 235.7 374.4 C 234.7 373.4 234.2 372.2 234.2 370.7 C 234.2 369.3 234.7 368.1 235.7 367 C 236.7 366 237.9 365.5 239.4 365.5 C 240.8 365.5 242 366 243.1 367 C 244.1 368 244.6 369.2 244.6 370.7 C 244.6 372.1 244.1 373.3 243.1 374.4 C 242.1 375.4 240.9 375.9 239.4 375.9 C 237.9 375.9 236.7 375.4 235.7 374.4 Z M 235.8 385 L 242.9 385 L 242.9 427.2 L 235.8 427.2 L 235.8 385 Z"
        fill="#6ab343"/>
    <path
        id="path_8"
        d="M 261.4 425.6 C 258.3 423.7 255.9 421 254.1 417.6 C 252.3 414.2 251.4 410.3 251.4 406.1 C 251.4 401.8 252.3 398 254.1 394.6 C 255.9 391.2 258.4 388.5 261.4 386.6 C 264.5 384.7 267.8 383.7 271.4 383.7 C 274.7 383.7 277.6 384.4 280.2 385.9 C 282.8 387.3 284.8 389.1 286.1 391.3 L 286.4 391.3 L 286.1 385.5 L 286.1 366.4 L 293.2 366.4 L 293.2 427.3 L 286.4 427.3 L 286.4 421 L 286.1 421 C 284.8 423.2 282.8 425 280.2 426.5 C 277.6 427.9 274.6 428.7 271.4 428.7 C 267.8 428.5 264.5 427.6 261.4 425.6 Z M 279.5 420.1 C 281.6 418.8 283.3 417 284.6 414.5 C 285.9 412.1 286.5 409.3 286.5 406.1 C 286.5 402.9 285.9 400 284.6 397.6 C 283.3 395.2 281.6 393.3 279.5 392.1 C 277.4 390.9 275.1 390.2 272.6 390.2 C 270.1 390.2 267.8 390.9 265.7 392.2 C 263.6 393.5 261.9 395.4 260.6 397.8 C 259.3 400.2 258.7 403 258.7 406.2 C 258.7 409.4 259.3 412.2 260.6 414.6 C 261.9 417 263.6 418.9 265.7 420.2 C 267.8 421.5 270.1 422.2 272.6 422.2 C 275.1 422.2 277.3 421.3 279.5 420.1 Z"
        fill="#6ab343"/>
    <path
        id="path_9"
        d="M 334.3 373.1 L 317.2 373.1 L 317.2 366.2 L 358.6 366.2 L 358.6 373.1 L 341.5 373.1 L 341.5 427.1 L 334.4 427.1 L 334.4 373.1 Z"
        fill="#424242"/>
    <path
        id="path_10"
        d="M 360.9 385 L 367.8 385 L 367.8 391.9 L 368.1 391.9 C 368.9 389.6 370.5 387.6 373 386 C 375.5 384.4 377.9 383.6 380.4 383.6 C 382.2 383.6 383.8 383.9 385.3 384.5 L 385.3 392.2 C 383.8 391.3 381.8 390.9 379.3 390.9 C 377.3 390.9 375.5 391.5 373.7 392.6 C 372 393.8 370.6 395.3 369.6 397.2 C 368.6 399.1 368.1 401.2 368.1 403.5 L 368.1 427 L 360.9 427 L 360.9 385 Z"
        fill="#424242"/>
    <path
        id="path_11"
        d="M 392.7 374.4 C 391.7 373.4 391.2 372.2 391.2 370.7 C 391.2 369.3 391.7 368.1 392.7 367 C 393.7 366 394.9 365.5 396.4 365.5 C 397.8 365.5 399 366 400.1 367 C 401.1 368 401.6 369.2 401.6 370.7 C 401.6 372.1 401.1 373.3 400.1 374.4 C 399.1 375.4 397.9 375.9 396.4 375.9 C 394.9 375.9 393.7 375.4 392.7 374.4 Z M 392.8 385 L 399.9 385 L 399.9 427.2 L 392.8 427.2 L 392.8 385 Z"
        fill="#424242"/>
    <path
        id="path_12"
        d="M 406.4 385 L 414.2 385 L 427.1 418.7 L 427.3 418.7 L 440.4 385 L 448.1 385 L 430.8 427.2 L 423.5 427.2 L 406.4 385 Z"
        fill="#424242"/>
    <path
        id="path_13"
        d="M 454.5 374.4 C 453.5 373.4 453 372.2 453 370.7 C 453 369.3 453.5 368.1 454.5 367 C 455.5 366 456.7 365.5 458.2 365.5 C 459.6 365.5 460.8 366 461.9 367 C 462.9 368 463.4 369.2 463.4 370.7 C 463.4 372.1 462.9 373.3 461.9 374.4 C 460.9 375.4 459.7 375.9 458.2 375.9 C 456.7 375.9 455.5 375.4 454.5 374.4 Z M 454.5 385 L 461.6 385 L 461.6 427.2 L 454.5 427.2 L 454.5 385 Z"
        fill="#424242"/>
    <path
        id="path_14"
        d="M 477.9 426.7 C 475.4 425.5 473.5 423.8 472.1 421.6 C 470.7 419.4 470 417 470 414.2 C 470 409.7 471.7 406.2 475.1 403.7 C 478.5 401.2 482.8 400 488.1 400 C 490.7 400 493.1 400.3 495.2 400.9 C 497.3 401.5 499 402.1 500.2 402.8 L 500.2 400.6 C 500.2 398.6 499.7 396.7 498.6 395.1 C 497.5 393.5 496.1 392.2 494.4 391.4 C 492.6 390.5 490.7 390.1 488.7 390.1 C 483.9 390.1 480.2 392.1 477.6 396 L 471.6 392 C 473.4 389.4 475.7 387.4 478.6 385.9 C 481.5 384.5 484.8 383.7 488.4 383.7 C 494.2 383.7 498.8 385.3 502.1 388.4 C 505.4 391.5 507.1 395.7 507.1 401 L 507.1 427.3 L 500.2 427.3 L 500.2 421 L 499.9 421 C 498.5 423.2 496.7 425 494.4 426.4 C 492.1 427.8 489.4 428.6 486.3 428.6 C 483.2 428.6 480.4 427.9 477.9 426.7 Z M 493.3 420.4 C 495.3 419.2 497 417.6 498.3 415.5 C 499.6 413.4 500.2 411.2 500.2 408.9 C 497 406.9 493.4 405.8 489.2 405.8 C 485.6 405.8 482.8 406.6 480.6 408.2 C 478.5 409.8 477.4 411.9 477.4 414.4 C 477.4 416.7 478.3 418.5 480.2 420 C 482.1 421.4 484.3 422.2 486.8 422.2 C 489.1 422.1 491.2 421.6 493.3 420.4 Z"
        fill="#424242"/>
    <path
        id="path_15"
        d="M 162.7 472.7 L 170.9 472.7 L 194 533.6 L 186 533.6 L 180 516.8 L 153.7 516.8 L 147.6 533.6 L 139.6 533.6 L 162.7 472.7 Z M 177.4 510.1 L 169.3 488.1 L 166.9 481.5 L 166.6 481.5 L 164.1 488.1 L 156.1 510.1 L 177.4 510.1 Z"
        fill="#424242"/>
    <path
        id="path_16"
        d="M 213.5 532.9 C 210.9 531.5 209 529.6 207.7 527.4 L 207.4 527.4 L 207.4 533.7 L 200.5 533.7 L 200.5 472.8 L 207.7 472.8 L 207.7 491.9 L 207.4 497.7 L 207.7 497.7 C 209.1 495.5 211 493.7 213.6 492.3 C 216.2 490.9 219.1 490.1 222.4 490.1 C 226 490.1 229.4 491.1 232.4 493 C 235.5 495 237.9 497.6 239.7 501 C 241.5 504.4 242.4 508.2 242.4 512.5 C 242.4 516.8 241.5 520.6 239.7 524 C 237.9 527.4 235.4 530.1 232.4 532 C 229.3 534 226 534.9 222.4 534.9 C 219.1 535 216.1 534.3 213.5 532.9 Z M 228.2 526.5 C 230.3 525.2 232 523.3 233.3 520.9 C 234.6 518.5 235.2 515.7 235.2 512.5 C 235.2 509.3 234.6 506.5 233.3 504.1 C 232 501.7 230.3 499.8 228.2 498.5 C 226.1 497.2 223.8 496.5 221.3 496.5 C 218.8 496.5 216.5 497.1 214.4 498.4 C 212.3 499.7 210.6 501.5 209.3 503.9 C 208 506.3 207.4 509.1 207.4 512.4 C 207.4 515.6 208 518.4 209.3 520.8 C 210.6 523.2 212.3 525.1 214.4 526.4 C 216.5 527.7 218.8 528.3 221.3 528.3 C 223.8 528.5 226.1 527.8 228.2 526.5 Z"
        fill="#424242"/>
    <path
        id="path_17"
        d="M 258.8 532.1 C 255.5 530.1 252.9 527.4 251.1 524 C 249.3 520.6 248.3 516.8 248.3 512.6 C 248.3 508.4 249.2 504.6 251.1 501.2 C 252.9 497.8 255.5 495.1 258.8 493.1 C 262.1 491.1 265.8 490.2 269.9 490.2 C 274 490.2 277.8 491.2 281.1 493.1 C 284.4 495 287 497.8 288.8 501.2 C 290.6 504.6 291.6 508.4 291.6 512.6 C 291.6 516.8 290.7 520.6 288.8 524 C 287 527.4 284.4 530.1 281.1 532.1 C 277.8 534.1 274.1 535 269.9 535 C 265.8 535 262 534 258.8 532.1 Z M 277 526.5 C 279.2 525.2 281 523.3 282.3 520.9 C 283.6 518.5 284.3 515.7 284.3 512.5 C 284.3 509.3 283.6 506.5 282.3 504.1 C 281 501.7 279.2 499.8 277 498.5 C 274.8 497.2 272.4 496.5 269.9 496.5 C 267.4 496.5 265 497.2 262.8 498.5 C 260.6 499.8 258.8 501.7 257.5 504.1 C 256.2 506.5 255.5 509.3 255.5 512.5 C 255.5 515.7 256.2 518.5 257.5 520.9 C 258.8 523.3 260.6 525.2 262.8 526.5 C 265 527.8 267.4 528.5 269.9 528.5 C 272.5 528.5 274.8 527.8 277 526.5 Z"
        fill="#424242"/>
    <path
        id="path_18"
        d="M 303 530.5 C 300.3 527.5 299 523.3 299 518 L 299 491.5 L 306.2 491.5 L 306.2 516.9 C 306.2 524.7 309.7 528.6 316.7 528.6 C 319 528.6 321.1 527.9 323 526.6 C 324.8 525.3 326.3 523.6 327.3 521.5 C 328.3 519.4 328.8 517.2 328.8 514.9 L 328.8 491.6 L 335.9 491.6 L 335.9 533.8 L 329 533.8 L 329 527.5 L 328.7 527.5 C 327.5 529.7 325.6 531.5 323 532.9 C 320.5 534.4 317.8 535.1 314.9 535.1 C 309.7 535 305.7 533.5 303 530.5 Z"
        fill="#424242"/>
    <path
        id="path_19"
        d="M 358.4 534.2 C 357 533.6 355.7 532.8 354.7 531.9 C 353.6 530.8 352.7 529.5 352.2 528 C 351.7 526.5 351.4 524.8 351.4 522.8 L 351.4 498 L 343.9 498 L 343.9 491.4 L 351.4 491.4 L 351.4 478.8 L 358.5 478.8 L 358.5 491.4 L 368.9 491.4 L 368.9 498 L 358.5 498 L 358.5 521 C 358.5 523.4 359 525.2 359.9 526.4 C 360.9 527.7 362.3 528.3 364.3 528.3 C 366.1 528.3 367.6 527.9 368.9 527.1 L 368.9 534.1 C 368 534.4 367.1 534.7 366.3 534.8 C 365.5 534.9 364.4 535 363 535 C 361.5 535 359.9 534.7 358.4 534.2 Z"
        fill="#424242"/>
</svg>
